#!OML:ASF F:\VICON\USERDATA\INSTALL\rory3\rory3.ASF
:FULLY-SPECIFIED
:DEGREES
1525
root -0.757326 17.5789 -4.34607 -179.332 -127.264 186.126
lowerback 5.39564 3.47425 -2.55068
upperback -0.160064 4.48375 0.546518
thorax -3.42524 2.27763 1.61057
lowerneck -16.6664 -3.25561 -11.0923
upperneck -28.2138 -2.28621 10.2726
head -5.75741 -0.960433 5.36477
rclavicle 5.73494e-014 4.77083e-015
rhumerus -33.1273 3.95228 -86.0844
rradius 37.0405
rwrist 16.2645
rhand -26.0768 4.1911
rfingers 7.12502
rthumb 0.471602 -25.7881
lclavicle 5.73494e-014 4.77083e-015
lhumerus -44.0137 10.6176 86.856
lradius 56.6934
lwrist -6.59404
lhand -21.3628 26.2985
lfingers 7.12502
lthumb 5.02409 56.219
rfemur 1.58888 1.58322 17.3578
rtibia 24.8197
rfoot -24.9173 -0.582996
rtoes 4.55454
lfemur -26.1016 -0.354492 -17.5736
ltibia 31.2651
lfoot -8.7468 5.91355
ltoes -16.4541
1526
root -0.724314 17.5863 -4.39034 -179.265 -126.96 186.113
lowerback 5.61699 3.54751 -2.68573
upperback -0.148907 4.56845 0.610655
thorax -3.55822 2.3234 1.72966
lowerneck -16.9662 -3.11895 -10.9012
upperneck -28.196 -2.12727 10.1317
head -5.73457 -0.892156 5.28307
rclavicle -4.82053e-014 6.36111e-015
rhumerus -33.295 5.08894 -86.6658
rradius 36.8295
rwrist 17.0616
rhand -26.3317 4.45229
rfingers 7.12502
rthumb 0.225364 -25.5273
lclavicle -4.82053e-014 6.36111e-015
lhumerus -44.4438 10.5648 87.2121
lradius 56.6496
lwrist -6.01932
lhand -21.3633 26.6064
lfingers 7.12502
lthumb 5.02355 56.5269
rfemur 1.23847 1.64643 17.3916
rtibia 24.8622
rfoot -24.8188 -0.657644
rtoes 4.10819
lfemur -26.2958 -0.0314754 -17.4987
ltibia 31.5072
lfoot -8.91605 5.53947
ltoes -17.6715
1527
root -0.693246 17.599 -4.42223 -179.364 -127.196 186.265
lowerback 5.8756 3.41314 -2.7909
upperback -0.168064 4.37625 0.661034
thorax -3.725 2.23178 1.84146
lowerneck -16.9131 -3.00705 -11.2104
upperneck -28.4131 -1.86314 10.5942
head -5.82323 -0.760182 5.51082
rclavicle 5.01931e-014 -7.15625e-015
rhumerus -33.5977 6.0823 -87.1293
rradius 36.7157
rwrist 18.0071
rhand -26.4685 5.17587
rfingers 7.12502
rthumb 0.0932249 -24.8039
lclavicle 5.01931e-014 -7.15625e-015
lhumerus -44.8135 10.3672 87.5178
lradius 56.5268
lwrist -5.59641
lhand -21.1525 26.8131
lfingers 7.12502
lthumb 5.22706 56.7286
rfemur 0.996048 1.47382 17.3214
rtibia 25.0784
rfoot -24.9204 -0.599869
rtoes 4.55573
lfemur -26.4648 -0.485141 -17.4548
ltibia 31.712
lfoot -9.12408 5.23704
ltoes -16.2707
1528
root -0.666072 17.6154 -4.45345 -179.45 -127.271 186.506
lowerback 5.99837 3.37982 -3.03425
upperback -0.183906 4.312 0.69117
thorax -3.82751 2.20598 2.00601
lowerneck -16.9127 -2.92586 -11.5549
upperneck -28.6036 -1.6195 11.1028
head -5.89329 -0.635027 5.75986
rclavicle -2.00773e-014 7.95139e-016
rhumerus -33.9378 7.06901 -87.6436
rradius 36.7829
rwrist 18.4428
rhand -26.6999 5.27549
rfingers 7.12502
rthumb -0.130255 -24.7042
lclavicle -2.00773e-014 7.95139e-016
lhumerus -45.2159 9.86843 87.9798
lradius 56.4248
lwrist -5.64519
lhand -21.9047 26.5806
lfingers 7.12502
lthumb 4.50079 56.5128
rfemur 0.659343 1.4113 17.1562
rtibia 25.2346
rfoot -24.8626 -0.417558
rtoes 5.36321
lfemur -26.7267 -0.82035 -17.4785
ltibia 32.0836
lfoot -9.3038 5.10454
ltoes -14.5245
1529
root -0.640763 17.6202 -4.48328 -180.104 -127.375 187.556
lowerback 5.96493 3.32795 -3.75198
upperback -0.163696 4.18742 0.53388
thorax -3.82086 2.15594 2.25801
lowerneck -17.374 -2.78663 -10.9635
upperneck -28.4614 -1.57271 10.533
head -5.81223 -0.636464 5.45097
rclavicle -1.03269e-013 -5.56597e-015
rhumerus -34.2088 8.03795 -88.3454
rradius 36.9932
rwrist 18.5152
rhand -27.3716 4.59392
rfingers 7.12502
rthumb -0.779005 -25.3844
lclavicle -1.03269e-013 -5.56597e-015
lhumerus -45.4687 9.22284 88.4333
lradius 56.1983
lwrist -6.24212
lhand -22.8362 26.3721
lfingers 7.12502
lthumb 3.60125 56.3214
rfemur 0.13883 1.22375 16.4275
rtibia 25.5993
rfoot -24.7243 -0.256496
rtoes 5.63262
lfemur -26.9594 -0.865462 -18.2162
ltibia 32.3653
lfoot -9.23547 5.06075
ltoes -16.038
1530
root -0.609585 17.6265 -4.50603 -179.007 -127.549 185.753
lowerback 6.48273 3.17651 -2.5608
upperback -0.0992894 4.06803 0.873007
thorax -3.9766 2.07684 1.93058
lowerneck -17.6628 -2.59254 -10.3255
upperneck -28.3512 -1.49895 9.8406
head -5.77204 -0.627703 5.09766
rclavicle -8.96519e-014 -1.66979e-014
rhumerus -34.5199 8.78106 -88.894
rradius 37.0957
rwrist 18.6223
rhand -27.8467 4.36983
rfingers 7.12502
rthumb -1.2379 -25.6063
lclavicle -8.96519e-014 -1.66979e-014
lhumerus -45.7434 8.55326 88.8766
lradius 56.0818
lwrist -6.37508
lhand -23.4646 26.4333
lfingers 7.12502
lthumb 2.99444 56.392
rfemur 0.212755 1.01511 17.6355
rtibia 25.9337
rfoot -24.5567 -0.211014
rtoes 6.06207
lfemur -26.7866 -0.735576 -17.1076
ltibia 32.83
lfoot -9.04867 4.84407
ltoes -18.214
1531
root -0.58306 17.644 -4.53164 -179.668 -127.533 186.941
lowerback 6.38908 3.15778 -3.39934
upperback -0.173865 3.97789 0.748937
thorax -4.04596 2.04994 2.28164
lowerneck -17.5511 -2.45774 -10.5477
upperneck -28.605 -1.2456 10.1388
head -5.88837 -0.501982 5.25496
rclavicle 6.54995e-014 -7.95139e-015
rhumerus -34.9298 9.33923 -89.2693
rradius 37.3608
rwrist 18.678
rhand -28.098 4.6626
rfingers 7.12502
rthumb -1.4806 -25.312
lclavicle 6.54995e-014 -7.95139e-015
lhumerus -45.8968 7.85632 89.3259
lradius 56.0345
lwrist -5.87839
lhand -23.5075 26.2515
lfingers 7.12502
lthumb 2.95301 56.2108
rfemur -0.512788 0.800072 16.761
rtibia 26.4635
rfoot -24.2196 0.0287304
rtoes 6.07797
lfemur -27.1173 -0.77082 -17.9234
ltibia 33.2002
lfoot -8.90601 4.79212
ltoes -18.97
